<svg viewBox="0 0 24 24" xmlns="http://www.w3.org/2000/svg"><path d="M9.74 4H6.465c-1.15 0-2.083.895-2.083 2v2.768a1.4 1.4 0 01-.436 1.01l-1.684 1.615A.84.84 0 002 12a.84.84 0 00.263.607l1.682 1.616c.28.267.437.63.438 1.01V18c0 1.105.933 2 2.083 2h3.273a.584.584 0 00.596-.571v-.572a.584.584 0 00-.596-.571H6.466A.292.292 0 016.168 18v-2.767c0-.834-.345-1.633-.959-2.223L4.157 12l1.052-1.01c.614-.59.96-1.39.96-2.223V6c0-.158.133-.286.297-.286h3.273a.584.584 0 00.596-.571V4.57A.584.584 0 009.739 4zm11.997 7.393l-1.683-1.616a1.403 1.403 0 01-.437-1.01V6c0-1.105-.933-2-2.083-2h-3.273a.584.584 0 00-.596.571v.572c0 .315.267.571.596.571h3.273c.164 0 .298.128.298.286v2.767c0 .834.344 1.634.959 2.223L19.843 12l-1.052 1.01a3.08 3.08 0 00-.96 2.223V18a.292.292 0 01-.297.286h-3.273a.584.584 0 00-.596.571v.572c0 .315.267.571.596.571h3.273c1.15 0 2.083-.895 2.083-2v-2.768a1.4 1.4 0 01.436-1.01l1.684-1.615A.84.84 0 0022 12a.84.84 0 00-.263-.607z" fill="currentColor" fill-rule="nonzero"/></svg>
