<svg xmlns="http://www.w3.org/2000/svg" viewBox="0 0 36 36"><path d="M18 32c-7.72 0-14-6.28-14-14S10.28 4 18 4s14 6.28 14 14-6.28 14-14 14zm0-27.067C10.795 4.933 4.933 10.795 4.933 18S10.795 31.067 18 31.067 31.067 25.205 31.067 18 25.205 4.933 18 4.933zm1.56 1.231v1.39c1.708.252 3.329.922 4.717 1.95l.982-.98a11.872 11.872 0 00-5.7-2.36zm-3.127.004a11.879 11.879 0 00-5.694 2.363l.975.98h.005a10.508 10.508 0 014.714-1.957V6.168zM17.125 9v4.679a4.395 4.395 0 00-1.562.644l-3.31-3.307-1.237 1.238 3.312 3.312a4.382 4.382 0 00-.648 1.559H9v1.75h4.68c.114.566.34 1.09.648 1.555l-3.312 3.313 1.238 1.238 3.309-3.31a4.396 4.396 0 001.562.648V27h1.75v-4.68a4.38 4.38 0 001.56-.652l3.311 3.313 1.238-1.238-3.312-3.313c.308-.464.535-.989.65-1.555H27v-1.75H22.32a4.394 4.394 0 00-.649-1.559l3.312-3.312-1.238-1.238-3.312 3.312a4.375 4.375 0 00-1.559-.649V9h-1.75zm10.344 1.735l-.98.98a10.519 10.519 0 011.957 4.723h1.39a11.886 11.886 0 00-2.367-5.703zm-18.942.007a11.877 11.877 0 00-2.363 5.697h1.392c.26-1.748.946-3.357 1.953-4.715l-.982-.982zm-2.363 8.82a11.868 11.868 0 002.36 5.696l.98-.982a10.507 10.507 0 01-1.948-4.715H6.164v.001zm22.282 0a10.51 10.51 0 01-1.957 4.72l.98.98a11.888 11.888 0 002.367-5.7h-1.39zm-16.731 6.927l-.98.98a11.882 11.882 0 005.699 2.367v-1.39a10.519 10.519 0 01-4.72-1.957zm12.562.003a10.506 10.506 0 01-4.718 1.957v1.387a11.878 11.878 0 005.7-2.362l-.978-.982h-.004z" /></svg>
