<svg xmlns="http://www.w3.org/2000/svg" viewBox="0 0 24 24"><path d="M20.948 8.214a.847.847 0 0 1-.235.918l-1.615 1.47a7.217 7.217 0 0 1 0 1.894l1.615 1.47a.847.847 0 0 1 .235.917 9.469 9.469 0 0 1-.585 1.28l-.176.302c-.246.41-.522.798-.824 1.167a.853.853 0 0 1-.914.254l-2.077-.664a8.16 8.16 0 0 1-1.641.951l-.467 2.13c-.074.335-.335.574-.679.664a9.747 9.747 0 0 1-3.17 0c-.343-.09-.604-.329-.679-.664l-.466-2.13a7.331 7.331 0 0 1-1.641-.951l-2.076.664a.852.852 0 0 1-.915-.254 9.788 9.788 0 0 1-.824-1.167l-.175-.302a9.303 9.303 0 0 1-.588-1.28.847.847 0 0 1 .237-.917l1.613-1.47a7.218 7.218 0 0 1 0-1.895l-1.613-1.47a.846.846 0 0 1-.237-.917c.165-.444.362-.873.588-1.28l.174-.301c.247-.41.523-.799.825-1.166a.847.847 0 0 1 .915-.254l2.076.662a7.173 7.173 0 0 1 1.641-.95l.466-2.13a.846.846 0 0 1 .679-.664 9.601 9.601 0 0 1 3.17 0 .846.846 0 0 1 .68.665l.466 2.13a7.965 7.965 0 0 1 1.64.95l2.078-.663a.849.849 0 0 1 .914.254c.302.367.578.755.824 1.166l.176.302c.224.406.421.835.585 1.28ZM12 14.533c1.649 0 2.984-1.336 2.984-3.018 0-1.615-1.335-2.984-2.984-2.984-1.648 0-2.984 1.369-2.984 2.984 0 1.682 1.336 3.018 2.984 3.018Z" fill-rule="nonzero"/></svg>
