<svg viewBox="0 0 24 24" xmlns="http://www.w3.org/2000/svg"><path d="M20.333 18.333H3.667c-.92 0-1.667-.746-1.667-1.666v-10C2 5.747 2.746 5 3.667 5h16.666C21.253 5 22 5.746 22 6.667v10c0 .92-.746 1.666-1.667 1.666zM6.444 9.028v-1.39a.417.417 0 00-.416-.416h-1.39a.417.417 0 00-.416.417v1.389c0 .23.187.416.417.416h1.389c.23 0 .416-.186.416-.416zm3.334 0v-1.39a.417.417 0 00-.417-.416H7.972a.417.417 0 00-.416.417v1.389c0 .23.186.416.416.416h1.39c.23 0 .416-.186.416-.416zm3.333 0v-1.39a.417.417 0 00-.417-.416h-1.388a.417.417 0 00-.417.417v1.389c0 .23.186.416.417.416h1.388c.23 0 .417-.186.417-.416zm3.333 0v-1.39a.417.417 0 00-.416-.416h-1.39a.417.417 0 00-.416.417v1.389c0 .23.187.416.417.416h1.389c.23 0 .416-.186.416-.416zm3.334 0v-1.39a.417.417 0 00-.417-.416h-1.389a.417.417 0 00-.416.417v1.389c0 .23.186.416.416.416h1.39c.23 0 .416-.186.416-.416zM8.11 12.36v-1.389a.417.417 0 00-.417-.416H6.306a.417.417 0 00-.417.416v1.39c0 .23.186.416.417.416h1.388c.23 0 .417-.187.417-.417zm3.333 0v-1.389a.417.417 0 00-.416-.416h-1.39a.417.417 0 00-.416.416v1.39c0 .23.187.416.417.416h1.389c.23 0 .416-.187.416-.417zm3.334 0v-1.389a.417.417 0 00-.417-.416h-1.389a.417.417 0 00-.416.416v1.39c0 .23.186.416.416.416h1.39c.23 0 .416-.187.416-.417zm3.333 0v-1.389a.417.417 0 00-.417-.416h-1.388a.417.417 0 00-.417.416v1.39c0 .23.186.416.417.416h1.388c.23 0 .417-.187.417-.417zM6.444 15.694v-1.388a.417.417 0 00-.416-.417h-1.39a.417.417 0 00-.416.417v1.388c0 .23.187.417.417.417h1.389c.23 0 .416-.186.416-.417zm10 0v-1.388a.417.417 0 00-.416-.417H7.972a.417.417 0 00-.416.417v1.388c0 .23.186.417.416.417h8.056c.23 0 .416-.186.416-.417zm3.334 0v-1.388a.417.417 0 00-.417-.417h-1.389a.417.417 0 00-.416.417v1.388c0 .23.186.417.416.417h1.39c.23 0 .416-.186.416-.417z" fill="currentColor" fill-rule="nonzero"/></svg>
