<svg xmlns="http://www.w3.org/2000/svg" viewBox="0 0 36 36"><g><path d="M17.595 4C12.016 4.017 8 8.54 8 13.625a9.57 9.57 0 002.382 6.332c.904 1.03 2.317 3.184 2.855 5.001 0 .014.004.028.006.043h8.764c0-.015.003-.028.006-.043.538-1.817 1.951-3.97 2.855-5.001A9.62 9.62 0 0017.595 4zm.03 5.25a4.38 4.38 0 00-4.375 4.375.875.875 0 11-1.75 0A6.132 6.132 0 0117.625 7.5a.875.875 0 010 1.75z" /><path d="M13.253 28.847l-.003-2.097H22v2.097a1.75 1.75 0 01-.296.966l-.934 1.407a1.75 1.75 0 01-1.457.78h-3.375a1.75 1.75 0 01-1.457-.78l-.935-1.407a1.75 1.75 0 01-.293-.966z" fill="#ACB5BD"/></g></svg>
