<svg viewBox="0 0 24 24" xmlns="http://www.w3.org/2000/svg"><path d="M5.75 4.21c1.816-1.461 4.124-2.267 6.427-2.207 1.156-.015 2.31.217 3.395.62-.942-.187-1.914-.256-2.866-.099-1.675.215-3.244 1.098-4.37 2.393.222-.04.422-.148.626-.237a6.859 6.859 0 012.236-.6c.77-.085 1.548-.017 2.315.078-.563.113-1.137.185-1.68.388a6.688 6.688 0 00-3.37 2.533c-.54.797-.924 1.733-.964 2.715-.014.667.203 1.408.774 1.78.44.274.962.371 1.466.272.603-.1 1.175-.35 1.703-.66.45-.276.886-.589 1.25-.981.148-.13.1-.342.103-.518-.083-.013-.171-.044-.246.013a7.79 7.79 0 01-1.4.621c-.781.25-1.647.342-2.426.032.5.07 1.018.012 1.475-.22.79-.393 1.438-1.02 2.126-1.568a20.472 20.472 0 013.473-2.237c1.005-.485 2.068-.921 3.187-.975-.61.554-1.256 1.072-1.828 1.673-.567.566-1.072 1.193-1.567 1.827-.137.186-.35.28-.53.411a6.04 6.04 0 00-2.027 2.43c-.365.796-.567 1.693-.46 2.575.076.553.34 1.115.816 1.411.504.324 1.135.327 1.699.207 1.281-.302 2.4-1.169 3.164-2.259.799-1.112 1.193-2.515 1.14-3.896-.02-.303-.062-.607-.065-.91.312.788.579 1.606.65 2.46.078.578.03 1.164-.063 1.735-.075.445-.222.87-.304 1.312a6.77 6.77 0 001.537-3.279 7.664 7.664 0 00-.555-4.231c.811 1.294 1.263 2.813 1.395 4.346.019.515.019 1.032 0 1.546a10.09 10.09 0 01-5.734 8.321c-3.059 1.465-6.824 1.267-9.689-.594a9.917 9.917 0 01-3.572-3.99A9.903 9.903 0 012 12.691v-1.268c.154-2.82 1.597-5.497 3.75-7.213m8.673 3.249a3.01 3.01 0 00.625-.181.627.627 0 00.403-.454c-.35.202-.702.401-1.028.635z" fill="currentColor" fill-rule="nonzero"/></svg>